<svg width="320" height="40" viewBox="0 0 320 40" fill="none" xmlns="http://www.w3.org/2000/svg">
<g clip-path="url(#clip0_34_986)">
<path d="M8.748 13.292V14.948H3.294V18.89H7.794V20.474H3.294V26H1.242V13.292H8.748ZM18.154 23.246H12.79L11.818 26H9.62198L14.302 13.49H16.66L21.322 26H19.126L18.154 23.246ZM17.578 21.662L15.472 15.722L13.366 21.662H17.578ZM28.5155 13.166C30.0755 13.166 31.3715 13.562 32.4035 14.354C33.4355 15.146 34.1315 16.22 34.4915 17.576H32.3135C32.0135 16.808 31.5335 16.202 30.8735 15.758C30.2255 15.302 29.4275 15.074 28.4795 15.074C27.7235 15.074 27.0455 15.26 26.4455 15.632C25.8575 16.004 25.3895 16.538 25.0415 17.234C24.7055 17.918 24.5375 18.722 24.5375 19.646C24.5375 20.558 24.7055 21.362 25.0415 22.058C25.3895 22.742 25.8575 23.27 26.4455 23.642C27.0455 24.014 27.7235 24.2 28.4795 24.2C29.4275 24.2 30.2255 23.978 30.8735 23.534C31.5335 23.078 32.0135 22.472 32.3135 21.716H34.4915C34.1315 23.072 33.4355 24.146 32.4035 24.938C31.3715 25.718 30.0755 26.108 28.5155 26.108C27.3155 26.108 26.2535 25.838 25.3295 25.298C24.4055 24.746 23.6915 23.984 23.1875 23.012C22.6835 22.028 22.4315 20.906 22.4315 19.646C22.4315 18.386 22.6835 17.27 23.1875 16.298C23.6915 15.314 24.4055 14.546 25.3295 13.994C26.2535 13.442 27.3155 13.166 28.5155 13.166ZM38.5909 14.948V18.8H43.2709V20.384H38.5909V24.326H43.8109V26H36.5389V13.292H43.8109V14.948H38.5909ZM52.4265 19.448C53.1945 19.604 53.8125 19.97 54.2805 20.546C54.7605 21.122 55.0005 21.794 55.0005 22.562C55.0005 23.618 54.6465 24.458 53.9385 25.082C53.2305 25.694 52.2045 26 50.8605 26H45.8025V13.292H50.7705C52.0425 13.292 53.0145 13.58 53.6865 14.156C54.3705 14.72 54.7125 15.5 54.7125 16.496C54.7125 17.3 54.5025 17.954 54.0825 18.458C53.6625 18.95 53.1105 19.28 52.4265 19.448ZM47.8545 18.764H50.3925C51.1125 18.764 51.6585 18.596 52.0305 18.26C52.4145 17.924 52.6065 17.456 52.6065 16.856C52.6065 16.268 52.4145 15.806 52.0305 15.47C51.6585 15.134 51.0885 14.966 50.3205 14.966H47.8545V18.764ZM50.4465 24.308C51.2265 24.308 51.8265 24.134 52.2465 23.786C52.6785 23.426 52.8945 22.928 52.8945 22.292C52.8945 21.656 52.6785 21.158 52.2465 20.798C51.8145 20.438 51.2085 20.258 50.4285 20.258H47.8545V24.308H50.4465ZM62.8155 13.13C63.9915 13.13 65.0535 13.406 66.0015 13.958C66.9615 14.51 67.7115 15.284 68.2515 16.28C68.8035 17.264 69.0795 18.38 69.0795 19.628C69.0795 20.876 68.8035 21.998 68.2515 22.994C67.7115 23.978 66.9615 24.752 66.0015 25.316C65.0535 25.868 63.9915 26.144 62.8155 26.144C61.6275 26.144 60.5535 25.868 59.5935 25.316C58.6455 24.752 57.8955 23.978 57.3435 22.994C56.7915 21.998 56.5155 20.876 56.5155 19.628C56.5155 18.38 56.7915 17.264 57.3435 16.28C57.8955 15.284 58.6455 14.51 59.5935 13.958C60.5535 13.406 61.6275 13.13 62.8155 13.13ZM62.8155 15.038C61.9995 15.038 61.2735 15.224 60.6375 15.596C60.0015 15.968 59.5035 16.502 59.1435 17.198C58.7955 17.894 58.6215 18.704 58.6215 19.628C58.6215 20.552 58.7955 21.362 59.1435 22.058C59.5035 22.754 60.0015 23.288 60.6375 23.66C61.2735 24.032 61.9995 24.218 62.8155 24.218C63.6195 24.218 64.3335 24.032 64.9575 23.66C65.5935 23.288 66.0855 22.754 66.4335 22.058C66.7935 21.362 66.9735 20.552 66.9735 19.628C66.9735 18.704 66.7935 17.894 66.4335 17.198C66.0855 16.502 65.5935 15.968 64.9575 15.596C64.3335 15.224 63.6195 15.038 62.8155 15.038ZM77.0362 13.13C78.2122 13.13 79.2742 13.406 80.2222 13.958C81.1822 14.51 81.9322 15.284 82.4722 16.28C83.0242 17.264 83.3002 18.38 83.3002 19.628C83.3002 20.876 83.0242 21.998 82.4722 22.994C81.9322 23.978 81.1822 24.752 80.2222 25.316C79.2742 25.868 78.2122 26.144 77.0362 26.144C75.8482 26.144 74.7742 25.868 73.8142 25.316C72.8662 24.752 72.1162 23.978 71.5642 22.994C71.0122 21.998 70.7362 20.876 70.7362 19.628C70.7362 18.38 71.0122 17.264 71.5642 16.28C72.1162 15.284 72.8662 14.51 73.8142 13.958C74.7742 13.406 75.8482 13.13 77.0362 13.13ZM77.0362 15.038C76.2202 15.038 75.4942 15.224 74.8582 15.596C74.2222 15.968 73.7242 16.502 73.3642 17.198C73.0162 17.894 72.8422 18.704 72.8422 19.628C72.8422 20.552 73.0162 21.362 73.3642 22.058C73.7242 22.754 74.2222 23.288 74.8582 23.66C75.4942 24.032 76.2202 24.218 77.0362 24.218C77.8402 24.218 78.5542 24.032 79.1782 23.66C79.8142 23.288 80.3062 22.754 80.6542 22.058C81.0142 21.362 81.1942 20.552 81.1942 19.628C81.1942 18.704 81.0142 17.894 80.6542 17.198C80.3062 16.502 79.8142 15.968 79.1782 15.596C78.5542 15.224 77.8402 15.038 77.0362 15.038ZM89.3489 19.574L94.9469 26H92.4449L87.4229 20.114V26H85.3709V13.292H87.4229V19.106L92.4629 13.292H94.9469L89.3489 19.574Z" fill="#344563"/>
<circle cx="112" cy="20" r="4" fill="#C1C7D0"/>
<path d="M136.496 13.31V14.642H130.952V19.034H135.65V20.312H130.952V26H129.314V13.31H136.496ZM147.221 16.118V26H145.583V23.678C145.331 24.482 144.881 25.1 144.233 25.532C143.597 25.952 142.853 26.162 142.001 26.162C140.861 26.162 139.937 25.796 139.229 25.064C138.521 24.32 138.167 23.258 138.167 21.878V16.118H139.805V21.716C139.805 22.7 140.057 23.462 140.561 24.002C141.065 24.53 141.749 24.794 142.613 24.794C143.513 24.794 144.233 24.506 144.773 23.93C145.313 23.342 145.583 22.49 145.583 21.374V16.118H147.221ZM151.483 12.68V26H149.845V12.68H151.483ZM155.755 12.68V26H154.117V12.68H155.755ZM170.863 22.706C170.863 23.306 170.719 23.864 170.431 24.38C170.143 24.896 169.705 25.316 169.117 25.64C168.529 25.964 167.803 26.126 166.939 26.126C166.099 26.126 165.349 25.976 164.689 25.676C164.041 25.364 163.519 24.944 163.123 24.416C162.739 23.876 162.517 23.264 162.457 22.58H164.203C164.239 22.94 164.359 23.294 164.563 23.642C164.779 23.978 165.079 24.26 165.463 24.488C165.859 24.704 166.333 24.812 166.885 24.812C167.605 24.812 168.157 24.62 168.541 24.236C168.925 23.852 169.117 23.36 169.117 22.76C169.117 22.244 168.979 21.824 168.703 21.5C168.439 21.176 168.109 20.924 167.713 20.744C167.317 20.552 166.777 20.348 166.093 20.132C165.289 19.868 164.641 19.622 164.149 19.394C163.669 19.154 163.255 18.8 162.907 18.332C162.571 17.864 162.403 17.246 162.403 16.478C162.403 15.818 162.559 15.236 162.871 14.732C163.195 14.228 163.651 13.838 164.239 13.562C164.839 13.286 165.541 13.148 166.345 13.148C167.593 13.148 168.583 13.454 169.315 14.066C170.047 14.666 170.473 15.434 170.593 16.37H168.829C168.733 15.866 168.475 15.422 168.055 15.038C167.635 14.654 167.065 14.462 166.345 14.462C165.685 14.462 165.157 14.636 164.761 14.984C164.365 15.32 164.167 15.8 164.167 16.424C164.167 16.916 164.293 17.318 164.545 17.63C164.809 17.93 165.133 18.17 165.517 18.35C165.901 18.518 166.429 18.71 167.101 18.926C167.917 19.19 168.571 19.442 169.063 19.682C169.567 19.922 169.993 20.288 170.341 20.78C170.689 21.26 170.863 21.902 170.863 22.706ZM177.782 24.56V26H176.558C175.55 26 174.794 25.76 174.29 25.28C173.798 24.8 173.552 23.996 173.552 22.868V17.54H172.076V16.118H173.552V13.652H175.208V16.118H177.764V17.54H175.208V22.904C175.208 23.54 175.322 23.978 175.55 24.218C175.79 24.446 176.198 24.56 176.774 24.56H177.782ZM183.831 15.992C184.791 15.992 185.601 16.232 186.261 16.712C186.933 17.192 187.401 17.834 187.665 18.638V16.118H189.303V26H187.665V23.48C187.401 24.284 186.933 24.926 186.261 25.406C185.601 25.886 184.791 26.126 183.831 26.126C182.955 26.126 182.175 25.922 181.491 25.514C180.807 25.106 180.267 24.524 179.871 23.768C179.487 23 179.295 22.1 179.295 21.068C179.295 20.036 179.487 19.136 179.871 18.368C180.267 17.6 180.807 17.012 181.491 16.604C182.175 16.196 182.955 15.992 183.831 15.992ZM184.299 17.45C183.291 17.45 182.481 17.774 181.869 18.422C181.269 19.058 180.969 19.94 180.969 21.068C180.969 22.196 181.269 23.084 181.869 23.732C182.481 24.368 183.291 24.686 184.299 24.686C184.947 24.686 185.523 24.536 186.027 24.236C186.543 23.936 186.945 23.516 187.233 22.976C187.521 22.424 187.665 21.788 187.665 21.068C187.665 20.348 187.521 19.712 187.233 19.16C186.945 18.608 186.543 18.188 186.027 17.9C185.523 17.6 184.947 17.45 184.299 17.45ZM196.284 15.992C197.544 15.992 198.588 16.328 199.416 17C200.244 17.672 200.754 18.572 200.946 19.7H199.218C199.098 18.992 198.768 18.44 198.228 18.044C197.7 17.636 197.04 17.432 196.248 17.432C195.672 17.432 195.144 17.564 194.664 17.828C194.196 18.092 193.818 18.5 193.53 19.052C193.242 19.592 193.098 20.264 193.098 21.068C193.098 21.872 193.242 22.55 193.53 23.102C193.818 23.642 194.196 24.044 194.664 24.308C195.144 24.572 195.672 24.704 196.248 24.704C197.04 24.704 197.7 24.5 198.228 24.092C198.768 23.684 199.098 23.126 199.218 22.418H200.946C200.754 23.558 200.244 24.464 199.416 25.136C198.588 25.796 197.544 26.126 196.284 26.126C195.336 26.126 194.496 25.922 193.764 25.514C193.032 25.106 192.456 24.524 192.036 23.768C191.628 23 191.424 22.1 191.424 21.068C191.424 20.036 191.628 19.136 192.036 18.368C192.456 17.6 193.032 17.012 193.764 16.604C194.496 16.196 195.336 15.992 196.284 15.992ZM208.507 26L204.727 21.554V26H203.089V12.68H204.727V20.42L208.453 16.118H210.451L206.023 21.032L210.559 26H208.507ZM227.141 19.646C227.141 20.93 226.883 22.052 226.367 23.012C225.851 23.96 225.089 24.698 224.081 25.226C223.085 25.742 221.885 26 220.481 26H216.449V13.31H220.481C221.885 13.31 223.085 13.568 224.081 14.084C225.089 14.588 225.851 15.32 226.367 16.28C226.883 17.228 227.141 18.35 227.141 19.646ZM220.355 24.524C222.011 24.524 223.277 24.098 224.153 23.246C225.029 22.394 225.467 21.194 225.467 19.646C225.467 18.098 225.029 16.898 224.153 16.046C223.289 15.182 222.023 14.75 220.355 14.75H218.087V24.524H220.355ZM238.441 20.51C238.441 20.858 238.417 21.158 238.369 21.41H230.467C230.503 22.538 230.821 23.384 231.421 23.948C232.033 24.512 232.777 24.794 233.653 24.794C234.445 24.794 235.105 24.596 235.633 24.2C236.173 23.792 236.503 23.252 236.623 22.58H238.369C238.249 23.264 237.979 23.876 237.559 24.416C237.151 24.956 236.617 25.376 235.957 25.676C235.297 25.976 234.553 26.126 233.725 26.126C232.777 26.126 231.937 25.922 231.205 25.514C230.473 25.106 229.897 24.524 229.477 23.768C229.069 23 228.865 22.1 228.865 21.068C228.865 20.036 229.069 19.136 229.477 18.368C229.897 17.6 230.473 17.012 231.205 16.604C231.937 16.196 232.777 15.992 233.725 15.992C234.685 15.992 235.519 16.196 236.227 16.604C236.947 17.012 237.493 17.558 237.865 18.242C238.249 18.926 238.441 19.682 238.441 20.51ZM236.785 20.618C236.821 19.886 236.701 19.274 236.425 18.782C236.149 18.29 235.771 17.924 235.291 17.684C234.811 17.444 234.289 17.324 233.725 17.324C232.825 17.324 232.069 17.606 231.457 18.17C230.845 18.722 230.515 19.538 230.467 20.618H236.785ZM244.418 24.254L247.478 16.118H249.242L245.372 26H243.428L239.558 16.118H241.322L244.418 24.254Z" fill="#6B778C"/>
<circle cx="266" cy="20" r="4" fill="#C1C7D0"/>
<path d="M282.756 24.74C284.796 23.372 286.428 22.016 287.652 20.672C288.876 19.316 289.488 18.056 289.488 16.892C289.488 16.172 289.302 15.596 288.93 15.164C288.57 14.72 287.982 14.498 287.166 14.498C286.326 14.498 285.69 14.768 285.258 15.308C284.826 15.836 284.586 16.568 284.538 17.504H282.918C283.002 16.088 283.44 15.002 284.232 14.246C285.024 13.478 286.044 13.094 287.292 13.094C288.48 13.094 289.422 13.412 290.118 14.048C290.814 14.684 291.162 15.584 291.162 16.748C291.162 17.708 290.85 18.686 290.226 19.682C289.614 20.666 288.84 21.584 287.904 22.436C286.98 23.276 286.026 23.99 285.042 24.578H291.486V25.928H282.756V24.74ZM293.239 19.574C293.239 21.614 293.575 23.204 294.247 24.344C294.919 25.484 296.083 26.054 297.739 26.054C299.395 26.054 300.559 25.484 301.231 24.344C301.915 23.204 302.257 21.614 302.257 19.574C302.257 17.558 301.915 15.98 301.231 14.84C300.559 13.7 299.395 13.13 297.739 13.13C296.083 13.13 294.919 13.7 294.247 14.84C293.575 15.968 293.239 17.546 293.239 19.574ZM300.637 19.574C300.637 20.618 300.559 21.494 300.403 22.202C300.259 22.898 299.977 23.456 299.557 23.876C299.137 24.296 298.531 24.506 297.739 24.506C296.959 24.506 296.359 24.296 295.939 23.876C295.519 23.456 295.231 22.898 295.075 22.202C294.931 21.494 294.859 20.618 294.859 19.574C294.859 18.542 294.931 17.678 295.075 16.982C295.231 16.286 295.519 15.734 295.939 15.326C296.359 14.906 296.959 14.696 297.739 14.696C298.531 14.696 299.137 14.906 299.557 15.326C299.977 15.734 300.259 16.286 300.403 16.982C300.559 17.678 300.637 18.542 300.637 19.574ZM303.504 14.84V13.31H307.14V26H305.412V14.84H303.504ZM318.014 14.606H311.498V18.854C311.798 18.446 312.23 18.122 312.794 17.882C313.358 17.642 313.976 17.522 314.648 17.522C315.548 17.522 316.292 17.714 316.88 18.098C317.48 18.47 317.918 18.968 318.194 19.592C318.482 20.204 318.626 20.888 318.626 21.644C318.626 22.952 318.26 24.02 317.527 24.848C316.796 25.676 315.722 26.09 314.306 26.09C313.034 26.09 311.996 25.748 311.192 25.064C310.388 24.368 309.938 23.438 309.842 22.274H311.462C311.594 23.018 311.9 23.6 312.38 24.02C312.872 24.428 313.49 24.632 314.234 24.632C315.158 24.632 315.854 24.356 316.322 23.804C316.79 23.252 317.024 22.526 317.024 21.626C317.024 20.75 316.784 20.066 316.304 19.574C315.824 19.082 315.146 18.836 314.27 18.836C313.646 18.836 313.1 18.974 312.632 19.25C312.164 19.514 311.81 19.874 311.57 20.33H309.986V13.148H318.014V14.606Z" fill="#6B778C"/>
</g>
<defs>
<clipPath id="clip0_34_986">
<rect width="320" height="40" fill="white"/>
</clipPath>
</defs>
</svg>
